# xmcd
# Track frame offsets:
# 150
# 17210
# 33160
# 45812
# 66745
# 93722
# 105830
# 123792
# 140582
# 156250
# 168542
# 181360
# 198400
# 214887
#
# Disc length: 3096 seconds
# Revision: 0
# Processed by: cddbd v1.4PL0 Copyright (c) Steve Scherf et al.
# Submitted via: VisiTrax 2.9.5.180 - For more info visit www.synapsa.com
#
DISCID=c10c160e
DTITLE=O J Hanssen - Deja-vu
DYEAR=1997
DGENRE=
TTITLE0=Betty's got a bass boat
TTITLE1=The outlaw
TTITLE2=This could go on forever
TTITLE3=Between me and the wall
TTITLE4=Persona non grata
TTITLE5=swingtown
TTITLE6=Hard luck cafe
TTITLE7=The workin' end of a hoe
TTITLE8=Deja-vu
TTITLE9=Fourteen carat mind
TTITLE10=Too much monkey business
TTITLE11=Tears in mama's eyes
TTITLE12=Where the trail ends
TTITLE13=Is it over
EXTD=
EXTT0=
EXTT1=
EXTT2=
EXTT3=
EXTT4=
EXTT5=
EXTT6=
EXTT7=
EXTT8=
EXTT9=
EXTT10=
EXTT11=
EXTT12=
EXTT13=
PLAYORDER=
